<?xml version="1.0" encoding="iso-8859-1"?>
<!-- Uploaded to: SVG Repo, www.svgrepo.com, Generator: SVG Repo Mixer Tools -->
<!DOCTYPE svg PUBLIC "-//W3C//DTD SVG 1.1//EN" "http://www.w3.org/Graphics/SVG/1.1/DTD/svg11.dtd">
<svg fill="#000000" version="1.1" id="Capa_1" xmlns="http://www.w3.org/2000/svg" xmlns:xlink="http://www.w3.org/1999/xlink" 
	 width="800px" height="800px" viewBox="0 0 155.883 155.883"
	 xml:space="preserve">
<g>
	<g>
		<path d="M20.11,136.248c0.584,2.618,1.172,5.261,1.756,7.897c36.928-8.244,75.207-8.244,112.145,0
			c0.584-2.637,1.181-5.279,1.766-7.897C97.688,127.724,58.194,127.724,20.11,136.248z"/>
		<path d="M72.199,110.333c-8.631,0.182-17.241,0.767-25.839,1.766c3.678,1.467,6.397,4.597,6.771,8.598
			c0.28,3.038-0.773,5.889-2.6,8.062c6.579-0.695,13.207-1.164,19.817-1.353c-2.098-1.905-3.538-4.579-3.668-7.653
			C66.494,115.764,68.75,112.293,72.199,110.333z"/>
		<path d="M109.532,112.099c-8.586-0.999-17.208-1.584-25.854-1.766c3.458,1.941,5.718,5.431,5.528,9.438
			c-0.128,3.057-1.559,5.736-3.653,7.648c6.601,0.194,13.214,0.645,19.802,1.352c-1.826-2.168-2.874-5.018-2.594-8.062
			C103.132,116.702,105.854,113.571,109.532,112.099z"/>
		<path d="M125.145,123.777c-0.548,3.008-2.338,5.468-4.688,7.075c4.542,0.756,9.061,1.639,13.555,2.649
			c1.242-5.535,2.484-11.07,3.714-16.624c-5.565-1.242-11.167-2.313-16.794-3.209C124.085,116.081,125.851,119.831,125.145,123.777z
			"/>
		<path d="M34.955,113.657c-5.624,0.901-11.222,1.967-16.797,3.215c1.239,5.554,2.475,11.082,3.708,16.623
			c4.509-1.01,9.03-1.887,13.57-2.654c-2.344-1.596-4.134-4.056-4.683-7.076C30.023,119.831,31.801,116.081,34.955,113.657z"/>
		<path d="M43.517,40.396l-0.238-3.784c-2.6,0.161-5.188,0.59-7.675,1.278l1.011,3.666C38.846,40.938,41.172,40.545,43.517,40.396z"
			/>
		<path d="M58.605,38.772c-2.417-0.864-4.969-1.501-7.557-1.863l-0.53,3.76c2.332,0.338,4.619,0.898,6.801,1.69L58.605,38.772z"/>
		<path d="M71.767,46.993c-1.857-1.814-3.921-3.432-6.147-4.819l-2,3.236c1.988,1.232,3.839,2.679,5.493,4.296L71.767,46.993z"/>
		<path d="M13.305,70.644c0-1.708,0.158-3.429,0.469-5.121l-3.742-0.679c-0.347,1.915-0.53,3.86-0.53,5.8
			c0,0.673,0.024,1.357,0.07,2.033l3.797-0.237C13.333,71.834,13.305,71.234,13.305,70.644z"/>
		<path d="M19.425,52.973l-3.021-2.32c-1.602,2.083-2.962,4.345-4.028,6.704l3.468,1.559C16.791,56.833,17.997,54.817,19.425,52.973
			z"/>
		<path d="M14.666,79.235l-3.617,1.163l0.381,1.229c0.447,1.912,1.172,3.922,2.159,5.968l3.428-1.632
			c-0.868-1.814-1.498-3.568-1.903-5.311L14.666,79.235z"/>
		<path d="M30.017,44.137l-0.81-1.723l-1.072-1.583c-2.247,1.172-4.36,2.588-6.305,4.192l2.433,2.923
			C25.995,46.5,27.892,45.239,30.017,44.137z"/>
		<path d="M84.079,47.06l2.674,2.707c1.632-1.607,3.477-3.066,5.468-4.32l-2.028-3.224C87.964,43.632,85.918,45.245,84.079,47.06z"
			/>
		<path d="M140.751,80.764c-0.371,1.583-0.986,3.3-1.833,5.091l3.44,1.625c0.956-2.021,1.662-4,2.076-5.754l0.438-1.443l-3.616-1.16
			L140.751,80.764z"/>
		<path d="M127.435,40.657l-1.419,3.547c1.967,1.035,3.83,2.271,5.535,3.675l2.411-2.944c-1.9-1.564-3.982-2.95-6.113-4.064
			L127.435,40.657z"/>
		<path d="M139.996,58.821l3.459-1.571c-1.078-2.372-2.437-4.621-4.037-6.698l-3.009,2.332
			C137.822,54.717,139.04,56.721,139.996,58.821z"/>
		<path d="M142.578,70.644c0,0.56-0.019,1.12-0.055,1.684l3.787,0.21c0.049-0.621,0.073-1.258,0.073-1.888
			c0-1.964-0.195-3.961-0.548-5.925l-3.751,0.7C142.413,67.157,142.578,68.902,142.578,70.644z"/>
		<path d="M97.208,38.812l1.29,3.577c2.181-0.792,4.47-1.358,6.784-1.696l-0.53-3.766C102.164,37.296,99.631,37.926,97.208,38.812z"
			/>
		<path d="M112.278,40.408c2.344,0.131,4.664,0.518,6.898,1.129l1.012-3.666c-2.497-0.676-5.079-1.099-7.673-1.267L112.278,40.408z"
			/>
		<path d="M155.883,70.644c0-15.893-9.079-30.54-23.699-38.228c-6.729-3.52-14.334-5.376-21.988-5.376
			c-6.411,0-12.586,1.333-18.298,3.729c0-3.218,0-6.437,0-9.651c-2.472,0.834-4.98,1.44-7.538,1.833
			c-0.736-1.635-2.052-2.944-3.675-3.675c0.393-2.549,0.983-5.069,1.836-7.539c-3.258,0-6.506,0-9.761,0
			c0.849,2.469,1.44,4.984,1.839,7.539c-1.632,0.736-2.947,2.046-3.684,3.675c-2.557-0.393-5.069-0.999-7.539-1.833
			c0,3.108,0,6.226,0,9.338c-5.532-2.22-11.53-3.416-17.695-3.416c-7.651,0-15.248,1.857-21.982,5.383
			C9.079,40.109,0,54.763,0,70.644c0,4.563,0.768,9.109,2.177,13.152c1.732,7.398,6.598,15.102,12.918,22.64
			c-0.523,0.115-1.06,0.194-1.583,0.311c0.587,2.63,1.172,5.249,1.76,7.892c41.263-9.226,84.067-9.226,125.339,0
			c0.584-2.643,1.169-5.262,1.76-7.892c-0.506-0.116-1.011-0.183-1.517-0.299c6.235-7.435,11.046-15.021,12.738-22.268
			C155.109,79.813,155.883,75.271,155.883,70.644z M84.359,29.036c2.497,0.384,4.975,0.989,7.398,1.793
			c-3.629,1.541-6.948,3.611-10.065,6.014c-0.347-1.38-0.782-2.731-1.008-4.135C82.313,31.971,83.629,30.662,84.359,29.036z
			 M77.644,22.956c1.677,0,3.035,1.358,3.035,3.035c0,1.678-1.358,3.039-3.035,3.039c-1.678,0-3.039-1.361-3.039-3.039
			C74.604,24.314,75.966,22.956,77.644,22.956z M77.941,89.361c2.095,0,3.8,1.705,3.8,3.8s-1.705,3.8-3.8,3.8
			c-2.101,0-3.803-1.705-3.803-3.8S75.847,89.361,77.941,89.361z M70.921,29.036c0.736,1.632,2.052,2.941,3.684,3.672
			c-0.191,1.267-0.609,2.475-0.91,3.714c-3.042-2.256-6.26-4.232-9.758-5.684C66.226,29.989,68.558,29.396,70.921,29.036z
			 M7.608,70.644c0-13.059,7.523-25.124,19.635-31.487c5.636-2.956,12.02-4.515,18.444-4.515c10.918,0,21.188,4.421,28.452,12.115
			v8.342l-0.088,0.082l0.088,0.106v27.158c-3.486,1.242-6.162,4.104-7.146,7.696c-4.433-7.148-12.41-11.953-21.602-11.953
			c-10.698,0-19.79,6.461-23.498,15.57c-0.408-0.548-0.91-1.145-1.285-1.681l-3.145,2.144c0.886,1.291,2.01,2.679,3.081,4.024
			c-0.161,0.871-0.198,1.754-0.268,2.649c-5.343-6.503-9.353-13.062-10.799-19.229C8.236,78.069,7.608,74.357,7.608,70.644z
			 M146.305,82.055c-1.419,6.064-5.39,12.531-10.692,18.962c-0.056-0.914-0.104-1.827-0.28-2.729
			c1.114-1.419,2.259-2.838,3.16-4.171l-3.13-2.144c-0.39,0.578-0.938,1.199-1.364,1.79c-3.702-9.109-12.799-15.582-23.492-15.582
			c-9.219,0-17.195,4.811-21.622,11.953c-0.992-3.593-3.666-6.454-7.143-7.69V55.359l0.17-0.198l-0.17-0.143v-8.208
			c7.233-7.736,17.513-12.176,28.442-12.176c6.437,0,12.83,1.559,18.456,4.506c12.105,6.366,19.619,18.432,19.619,31.496
			C148.283,74.416,147.65,78.127,146.305,82.055z"/>
	</g>
</g>
</svg>